<?xml version="1.0" encoding="iso-8859-1"?>
<!-- Uploaded to: SVG Repo, www.svgrepo.com, Generator: SVG Repo Mixer Tools -->
<svg height="800px" width="800px" version="1.1" id="Layer_1" xmlns="http://www.w3.org/2000/svg" xmlns:xlink="http://www.w3.org/1999/xlink" 
	 viewBox="0 0 512 512" xml:space="preserve">
<path style="fill:#88CC2A;" d="M222.609,445.141H50.087c-9.206,0-16.696-7.49-16.696-16.696V83.402
	c0-9.206,7.49-16.696,16.696-16.696h131.729l-4.968,4.968c-6.521,6.516-6.521,17.092,0,23.609c6.522,6.522,17.086,6.522,23.609,0
	l31.356-31.357c4.511-2.99,7.492-8.099,7.492-13.915c0-5.951-3.139-11.139-7.824-14.096L200.457,4.891
	c-6.521-6.521-17.087-6.521-23.609,0c-6.521,6.516-6.521,17.092,0,23.609l4.815,4.815H50.087C22.468,33.315,0,55.783,0,83.402
	v345.043c0,27.619,22.468,50.087,50.087,50.087h172.522c9.217,0,16.696-7.473,16.696-16.696S231.826,445.141,222.609,445.141z"/>
<path style="fill:#7FB335;" d="M461.913,33.315H289.391c-9.217,0-16.696,7.473-16.696,16.696s7.479,16.696,16.696,16.696h172.522
	c9.206,0,16.696,7.49,16.696,16.696v345.043c0,9.206-7.49,16.696-16.696,16.696H329.206l4.815-4.815
	c6.521-6.516,6.521-17.092,0-23.609c-6.521-6.521-17.087-6.521-23.609,0l-33.391,33.391c-6.521,6.516-6.521,17.092,0,23.609
	l33.391,33.391c3.261,3.261,7.533,4.892,11.804,4.892s8.544-1.631,11.804-4.892c6.521-6.516,6.521-17.092,0-23.609l-4.967-4.968
	h132.861c27.619,0,50.087-22.468,50.087-50.087V83.402C512,55.782,489.532,33.315,461.913,33.315z"/>
<path style="fill:#FF9F19;" d="M356.174,378.358H155.826c-18.442,0-33.391-14.949-33.391-33.391V178.01
	c0-18.442,14.949-33.391,33.391-33.391h200.348c18.442,0,33.391,14.949,33.391,33.391v166.957
	C389.565,363.408,374.616,378.358,356.174,378.358z"/>
<path style="fill:#F28618;" d="M356.174,144.619H256v233.739h100.174c18.442,0,33.391-14.949,33.391-33.391V178.01
	C389.565,159.568,374.616,144.619,356.174,144.619z"/>
<path style="fill:#FFDFB3;" d="M270.391,225.792L256,211.402l-14.391,14.391c-7.012,7.012-19.001,2.046-19.001-7.87v-73.303h66.783
	v73.303C289.391,227.838,277.403,232.803,270.391,225.792z"/>
<path style="fill:#FFCC99;" d="M270.392,225.792c7.011,7.011,19,2.046,19-7.871v-73.303H256v66.783L270.392,225.792z"/>
</svg>